<svg xmlns="http://www.w3.org/2000/svg" viewBox="0 0 247.89 133.43"><defs><style>.cls-1{fill:#010101;}.cls-2{fill:none;}.cls-3{fill:#bf2728;}</style></defs><title>Asset 1</title><g id="Layer_2" data-name="Layer 2"><g id="Layer_1-2" data-name="Layer 1"><path class="cls-1" d="M89.1,108.32H73.58v25.11H66.46V69.53H90.37c11.59,0,20.36,6.11,20.36,19.08C110.73,101.29,101.88,108.32,89.1,108.32ZM90.1,76H73.58v25.83H89.19c9.76,0,14.42-4.47,14.42-13C103.61,80.66,98.86,76,90.1,76Z"/><path class="cls-1" d="M151.35,133.43l-5.47-16.26H119.49l-5.57,16.26h-7.3l22.19-63.9h7.84l22.19,63.9ZM136.65,89.7c-1.46-4.2-3.28-10-3.92-12.6-.64,2.56-2.46,8.31-4,12.78l-7,20.82h22Z"/><path class="cls-2" d="M180.22,38.8c12-10.78,13.14-25.16,8.18-26.9s-8.92,6.57-9.91,12.4c-.92,5.4-.67,9.21.55,15.56Z"/><path class="cls-2" d="M182.08,74.13c-6.81,2.61-7.68,10.41-5.33,14a19.55,19.55,0,0,0,5.33,5.45s-5.58-1.11-8.18-4.7-3.47-10-1.37-14.51a17.74,17.74,0,0,1,9.41-9.23c-.86-4.1-1.69-8.07-2.44-11.7-1.21,1.14-2.49,2.28-3.87,3.45-8.8,7.44-13.51,17.11-13.38,24.3s5.2,17.36,15.37,19.09a25.47,25.47,0,0,0,11.51-.49c-1.51-7.33-3.47-16.76-5.42-26.15A14,14,0,0,0,182.08,74.13Z"/><path class="cls-2" d="M186,73.37c2,9.48,4,19,5.33,25.59a14,14,0,0,0,3.26-2.1,20.35,20.35,0,0,1-1.27-3.71,15.87,15.87,0,0,1-.43-4,17.8,17.8,0,0,1,.64-4.37,15.68,15.68,0,0,1,1.69-3.88,14.92,14.92,0,0,1,1.71-2.3A12.71,12.71,0,0,0,186,73.37Z"/><path class="cls-1" d="M194.6,96.86a14,14,0,0,1-3.26,2.1C190,92.38,188,82.85,186,73.37a12.71,12.71,0,0,1,10.93,5.23c.3-.33.61-.65.94-.95a16.38,16.38,0,0,1,2.31-1.76,16.91,16.91,0,0,1,2.21-1.11,20.41,20.41,0,0,0-2.47-4.36,16.46,16.46,0,0,0-15.75-6h0c-1-4.72-1.92-9.17-2.69-12.92,5.29-5.35,8.6-10.33,10.29-15.1a46.3,46.3,0,0,0,1.73-22.69C192,6.45,187.9,0,185.8,0s-7.44,5.21-9.55,13.14a45.79,45.79,0,0,0-.49,22.44c.22,1.08.67,3.22,1.28,6.13C166.76,51.32,159.78,60,157.41,69.17c-2.6,10,2.6,22.81,10.66,28.64a25.75,25.75,0,0,0,21.47,4c1.1,5.31,1.9,9.27,2.21,10.89,1.49,7.82.62,12.53-2.73,15.63s-8.8,2.72-10.53,2.35-4-1.36-3.36-2.6,4,.37,6.08-3.1.74-8.31-1.73-10.42-10-1.36-11.66,4.1.37,11.9,7.56,14,14.51-.25,17.73-5.34,1.37-12.89-.24-21l-1.09-5.31.34-.14a22.87,22.87,0,0,0,3.57-1.9c-.36-.65-.69-1.3-1-2A1.21,1.21,0,0,0,194.6,96.86ZM178.49,24.3c1-5.83,4.95-14.13,9.91-12.4s3.84,16.12-8.18,26.9L179,39.86C177.82,33.51,177.57,29.7,178.49,24.3Zm-.87,76c-10.17-1.73-15.25-11.9-15.37-19.09s4.58-16.86,13.38-24.3c1.38-1.17,2.66-2.31,3.87-3.45.75,3.63,1.58,7.6,2.44,11.7a17.74,17.74,0,0,0-9.41,9.23c-2.1,4.46-1.23,10.91,1.37,14.51s8.18,4.7,8.18,4.7a19.55,19.55,0,0,1-5.33-5.45c-2.35-3.6-1.48-11.4,5.33-14a14,14,0,0,1,1.63-.48c1.95,9.39,3.91,18.82,5.42,26.15A25.47,25.47,0,0,1,177.62,100.29Z"/><path class="cls-3" d="M193.54,84.78a17.8,17.8,0,0,0-.64,4.37,15.87,15.87,0,0,0,.43,4,20.35,20.35,0,0,0,1.27,3.71A13.36,13.36,0,0,0,199.06,87a13.29,13.29,0,0,0-2.12-8.43,14.92,14.92,0,0,0-1.71,2.3A15.68,15.68,0,0,0,193.54,84.78Z"/><path class="cls-3" d="M247.44,86A15.85,15.85,0,0,0,245.92,82a15,15,0,0,0-2.5-3.37,15.77,15.77,0,0,0-2.24-1.84,16,16,0,0,0-2.53-1.39,15.38,15.38,0,0,0-2.74-.89,14.86,14.86,0,0,0-6.53,0A13.42,13.42,0,0,0,226,75.88a13.73,13.73,0,0,0-3,2.17,16.24,16.24,0,0,0-2.47,3,16.68,16.68,0,0,0-2.32-3.08,14.46,14.46,0,0,0-2.87-2.28,13.45,13.45,0,0,0-3.31-1.46,13.83,13.83,0,0,0-3.65-.55,15.29,15.29,0,0,0-2.87.21,15.93,15.93,0,0,0-2.78.77l-.38.16a22.2,22.2,0,0,1,1.37,12.49A17.91,17.91,0,0,1,195.69,99c.36.63.74,1.26,1.15,1.88a46.64,46.64,0,0,0,2.8,3.79c1,1.26,2.13,2.51,3.29,3.77s2.39,2.51,3.66,3.77,2.55,2.53,3.85,3.81c1,1,2,2,3,3s2,2,3,3,2,2,2.88,3.07l.31.34.32-.32c1-1,1.94-1.9,2.93-2.83s2-1.85,3-2.77l3-2.71c1.38-1.22,2.73-2.43,4.07-3.64s2.62-2.42,3.87-3.63,2.4-2.43,3.5-3.65,2.09-2.45,3-3.69a31.41,31.41,0,0,0,2.35-3.79,21,21,0,0,0,1.55-3.93,16.21,16.21,0,0,0,.62-4.1A17.64,17.64,0,0,0,247.44,86Z"/><path class="cls-1" d="M47.38,69.53,32.13,107.78c-1.46,3.74-3.74,9.67-4.56,12.41-.73-2.65-3-8.58-4.57-12.41L7.94,69.53H0v63.9H6.85V83.31A101.67,101.67,0,0,0,10.59,93.9l16.13,39.53h1.34L44.46,93.9a112.6,112.6,0,0,0,3.83-10.59v50.12h6.85V69.53Z"/></g></g></svg>